<?xml version="1.0" standalone="no"?>
<!DOCTYPE svg PUBLIC "-//W3C//DTD SVG 20010904//EN"
 "http://www.w3.org/TR/2001/REC-SVG-20010904/DTD/svg10.dtd">
<svg version="1.0" xmlns="http://www.w3.org/2000/svg"
 width="999.000000pt" height="551.000000pt" viewBox="0 0 999.000000 551.000000"
 preserveAspectRatio="xMidYMid meet">

<g transform="translate(0.000000,551.000000) scale(0.100000,-0.100000)"
fill="#000000" stroke="none">
<path d="M6393 3779 c-83 -41 -99 -153 -30 -216 48 -43 94 -51 149 -24 104 50
108 189 8 242 -45 24 -75 24 -127 -2z"/>
<path d="M2073 3683 c-8 -21 -167 -434 -353 -918 -186 -484 -341 -888 -345
-898 -7 -16 1 -17 116 -15 l123 3 90 257 91 258 399 -3 399 -2 97 -255 97
-255 122 -3 121 -3 -20 53 c-11 29 -172 449 -359 933 l-339 880 -112 3 -111 3
-16 -38z m300 -718 l144 -390 -158 -3 c-87 -1 -232 -1 -322 0 l-164 3 148 405
c81 223 153 430 160 460 l12 55 18 -70 c10 -38 83 -245 162 -460z"/>
<path d="M3680 3195 c-228 -52 -402 -220 -465 -450 -23 -82 -31 -308 -15 -399
37 -209 152 -372 324 -456 188 -93 434 -93 622 -1 205 102 318 279 345 544 18
181 -20 381 -97 508 -66 110 -182 201 -303 240 -87 28 -314 36 -411 14z m318
-182 c97 -29 182 -107 227 -208 39 -88 50 -153 50 -295 0 -147 -21 -240 -71
-327 -75 -127 -211 -191 -385 -181 -235 14 -377 161 -411 424 -19 147 15 319
83 426 100 156 305 221 507 161z"/>
<path d="M5349 3196 c-99 -28 -189 -93 -267 -191 l-31 -40 -1 108 0 107 -105
0 -105 0 0 -665 0 -665 105 0 104 0 3 438 c3 398 5 441 22 487 42 114 129 205
227 241 25 9 77 16 120 16 167 1 268 -94 298 -282 6 -38 11 -239 11 -482 l0
-418 106 0 105 0 -3 493 -3 492 -28 81 c-45 135 -113 212 -232 265 -40 18 -72
23 -165 26 -74 1 -131 -2 -161 -11z"/>
<path d="M7295 3196 c-83 -19 -169 -50 -221 -81 l-44 -26 0 -104 c0 -58 3
-105 6 -105 3 0 20 12 37 26 44 37 155 90 228 109 92 24 223 23 279 -2 56 -25
97 -66 121 -118 23 -52 45 -183 33 -194 -5 -5 -112 -23 -238 -41 -126 -18
-252 -39 -280 -47 -135 -40 -229 -115 -279 -222 -38 -81 -49 -216 -23 -303 46
-159 176 -253 366 -265 160 -10 277 34 379 143 34 35 61 69 61 74 0 6 5 10 10
10 6 0 10 -40 10 -100 l0 -100 106 0 105 0 -3 508 c-5 575 -5 575 -84 688 -46
66 -107 111 -189 140 -66 23 -294 29 -380 10z m445 -754 c0 -206 -71 -341
-218 -413 -63 -32 -227 -35 -282 -5 -86 46 -120 103 -120 204 0 149 68 212
265 246 135 24 275 44 318 45 l37 1 0 -78z"/>
<path d="M6350 2515 l0 -665 105 0 105 0 0 665 0 665 -105 0 -105 0 0 -665z"/>
</g>
</svg>
